<?xml version="1.0" encoding="utf-8" ?>
<svg xmlns="http://www.w3.org/2000/svg" xmlns:xlink="http://www.w3.org/1999/xlink" width="1025" height="512">
	<path transform="matrix(0.500488 0 0 0.5 -6.10352e-05 -3.05176e-05)" d="M925.778 329.73C937.171 340.525 951.668 365.226 951.883 381.434C951.934 385.254 950.356 388.28 949.813 391.894L949.337 391.944C936.877 381.443 927.456 370.981 926.004 353.912C925.327 345.958 925.72 337.715 925.778 329.73Z"/>
	<path transform="matrix(0.500488 0 0 0.5 -6.10352e-05 -3.05176e-05)" d="M981.657 362.289C987.672 360.113 993.813 357.966 999.6 355.231C1005.8 352.3 1017.45 343.458 1023.45 342.905C1018.74 351.645 1005.84 358.858 997.369 363.597C989.177 367.012 980.836 369.434 972.314 371.842C966.931 379.385 957.699 390.083 954.927 398.709L953.449 400.595L954.162 401.281L954.869 401.099C961.43 399.47 970.291 398.616 977.006 399.561C972.645 400.792 968.446 401.24 963.956 401.642C963.873 404.524 965.906 406.254 966.483 409.018C963.14 407.966 956.573 404.476 953.474 406.014C945.357 410.043 933.638 445.505 931.257 454.85C931.212 455.023 931.176 455.199 931.135 455.374L929.074 453.669L929.901 449.636C928.48 451.528 927.984 453.541 925.557 454.091C922.578 443.507 944.372 414.985 947.804 403.866C948.313 402.216 947.14 401.096 946.295 399.807L949.337 391.944L949.813 391.894C955.605 388.167 967.29 368.307 971.426 361.671L973.173 362.504L973.35 365.114C976.747 366.048 988.685 349.507 994.095 349.084C991.26 354.183 985.502 357.89 981.657 362.289Z"/>
	<path transform="matrix(0.500488 0 0 0.5 -6.10352e-05 -3.05176e-05)" d="M878.24 358.828Q881.73 359.279 885.199 359.865C904.462 363.159 920.784 369.412 932.783 385.69C936.082 390.165 938.533 395.249 941.78 399.816C936.89 399.779 931.615 400.023 926.797 399.159C906.617 395.544 889.463 374.602 878.24 358.828Z"/>
	<path transform="matrix(0.500488 0 0 0.5 -6.10352e-05 -3.05176e-05)" d="M954.927 398.709C984.464 384.862 1009.05 386.296 1040.69 391.349C1024.98 403.643 991.98 412.208 972 409.861Q969.228 409.526 966.483 409.018C965.906 406.254 963.873 404.524 963.956 401.642C968.446 401.24 972.645 400.792 977.006 399.561C970.291 398.616 961.43 399.47 954.869 401.099L954.162 401.281L953.449 400.595L954.927 398.709Z"/>
	<path transform="matrix(0.500488 0 0 0.5 -6.10352e-05 -3.05176e-05)" d="M1049.2 301.464C1049.21 301.752 1049.25 302.039 1049.25 302.328C1049.31 305.892 1046.57 308.863 1044.17 311.125C1044.25 318.353 1031.66 335.869 1026.26 341.213C1025.41 342.051 1024.61 342.621 1023.45 342.905C1017.45 343.458 1005.8 352.3 999.6 355.231C993.813 357.966 987.672 360.113 981.657 362.289C985.502 357.89 991.26 354.183 994.095 349.084C988.685 349.507 976.747 366.048 973.35 365.114L973.173 362.504L971.426 361.671C975.028 351.574 980.518 343.744 988.562 336.728C990.447 334.702 992.896 333.116 995.105 331.456C1011.27 317.379 1031.33 312.146 1049.2 301.464Z"/>
	<path transform="matrix(0.500488 0 0 0.5 -6.10352e-05 -3.05176e-05)" d="M1049.2 301.464C1049.21 301.752 1049.25 302.039 1049.25 302.328C1049.31 305.892 1046.57 308.863 1044.17 311.125C1040.58 316.559 1036.16 318.622 1030.19 320.766L1030.8 320.057C1021.46 324.96 1009.25 332.374 1002.79 340.682L1001.93 339.1C1002.99 335.312 1007 332.652 1009.32 329.466C1007.08 329.56 1002.28 334.131 1000.09 335.607C997.914 338.241 996.491 340.757 993.246 342.005C990.147 340.565 990.789 338.873 988.562 336.728C990.447 334.702 992.896 333.116 995.105 331.456C1011.27 317.379 1031.33 312.146 1049.2 301.464Z"/>
	<path transform="matrix(0.500488 0 0 0.5 -6.10352e-05 -3.05176e-05)" d="M1126.14 454.586C1134.68 454.516 1143.24 454.3 1151.77 454.496C1152.32 455.608 1152.8 456.766 1152.89 458.016C1153.57 468.338 1151.85 479.65 1151.71 490.098C1151.54 502.48 1152.69 515.081 1152 527.413C1151.75 531.733 1151.22 536.092 1149.87 540.219C1147.36 547.94 1142.45 554.14 1135.14 557.797C1125.63 562.551 1113.45 562.539 1103.52 559.125C1099.59 557.772 1095.88 555.813 1092.22 553.865L1093.29 552.005C1097.08 549.896 1097.79 548.364 1098.96 544.149C1099.72 541.385 1100.86 536.89 1100.02 534.101C1104.64 536.553 1112.8 542.237 1118.2 540.599C1122.05 539.432 1125.25 536.048 1126.85 532.436C1128.64 528.383 1128.73 460.209 1126.87 456.028C1126.44 455.044 1126.59 455.34 1126.14 454.586Z"/>
	<path transform="matrix(0.500488 0 0 0.5 -6.10352e-05 -3.05176e-05)" d="M849.695 454.436C868.762 454.036 898.35 457.207 915.88 453.856C919.206 450.138 942.275 407.256 943.567 402.127C943.833 401.067 945.377 400.423 946.295 399.807C947.14 401.096 948.313 402.216 947.804 403.866C944.372 414.985 922.578 443.507 925.557 454.091C927.984 453.541 928.48 451.528 929.901 449.636L929.074 453.669L931.135 455.374C931.617 461.965 931.386 468.639 931.347 475.246L904.516 475.359C904.291 492.794 903.844 510.256 903.85 527.691L879.72 533.249C879.724 523.881 881.143 512.206 879.076 503.193C878.62 493.896 878.621 484.54 878.427 475.232L849.561 475.257L849.695 454.436Z"/>
	<path transform="matrix(0.500488 0 0 0.5 -6.10352e-05 -3.05176e-05)" d="M1157.62 454.498C1165.09 453.819 1172.67 454.092 1180.17 454.144C1180.29 454.272 1180.42 454.394 1180.54 454.526C1184.55 459.001 1204.11 522.483 1203.8 529.295C1204.57 528.584 1205.27 527.781 1205.74 526.841C1208.3 521.796 1224.13 466.383 1225.87 458.725C1226.24 457.112 1226.15 455.795 1225.61 454.221C1234.65 453.994 1244.19 453.512 1253.18 454.474C1252.08 461.414 1248.13 471.88 1244.1 477.564C1244.12 477.737 1244.14 477.91 1244.14 478.084C1244.34 483.099 1218.26 555.351 1214.42 559.338L1192.44 559.715C1192.69 554.849 1160.85 470.036 1157.62 454.498Z"/>
	<path transform="matrix(0.500488 0 0 0.5 -6.10352e-05 -3.05176e-05)" d="M1092.22 553.865C1089.51 556.722 1084.92 558.193 1081.23 559.255C1064.82 563.973 1045.8 563.216 1030.77 554.66C1020.03 548.546 1012.43 539.286 1009.16 527.315C1004.8 511.299 1006.83 491.269 1015.29 476.904C1022.08 465.388 1034.27 457.174 1047.17 454.075C1060.9 450.778 1077.9 453.136 1090.04 460.424L1091.09 462.228C1091.04 467.977 1092.88 477.668 1090.8 482.779C1087.12 483.378 1079.2 477.101 1075.33 475.542C1067.01 472.189 1057.9 473.138 1049.85 476.762C1042.71 479.976 1038.14 484.912 1035.51 492.317C1031.86 502.587 1032.58 516.053 1037.26 525.883C1040.68 533.062 1046.16 537.679 1053.66 540.221C1064.47 543.886 1076.1 541.11 1085.06 534.336C1087.33 532.616 1089.03 530.179 1091.61 528.93C1092.15 529.512 1092.33 529.626 1092.7 530.266C1095.27 534.657 1094.38 547.082 1093.29 552.005L1092.22 553.865Z"/>
	<path transform="matrix(0.500488 0 0 0.5 -6.10352e-05 -3.05176e-05)" d="M937.778 454.859L998.459 454.872L998.422 474.981L963.807 474.72L963.836 496.037L996.991 496.122L996.944 517.045L963.972 516.868L963.974 539.284C975.694 539.334 987.533 539.061 999.237 539.545L999.262 559.934L937.19 559.964C937.168 552.13 936.867 544.184 937.228 536.363C937.675 534.54 937.209 532.177 937.064 530.302C939.427 524.886 937.851 465.682 937.778 454.859Z"/>
	<path transform="matrix(0.500488 0 0 0.5 -6.10352e-05 -3.05176e-05)" d="M1296.91 453.499C1312.97 451.604 1331.45 453.3 1345.99 460.803C1346.05 461.112 1346.18 461.575 1346.18 461.915C1346.17 466.472 1340.4 478.207 1337.06 481.243C1336.9 481.151 1336.74 481.055 1336.58 480.965C1326.41 475.209 1311.53 470.967 1300.12 474.241C1291.89 476.599 1285.19 482.669 1281.21 490.142Q1280.79 490.944 1280.41 491.766Q1280.04 492.587 1279.7 493.426Q1279.36 494.266 1279.07 495.121Q1278.77 495.976 1278.52 496.844Q1278.27 497.712 1278.06 498.592Q1277.85 499.472 1277.68 500.361Q1277.52 501.25 1277.39 502.147Q1277.27 503.043 1277.19 503.944Q1277.12 504.845 1277.08 505.749Q1277.05 506.653 1277.06 507.557Q1277.08 508.461 1277.13 509.364Q1277.19 510.267 1277.29 511.165Q1277.39 512.064 1277.54 512.957Q1277.68 513.85 1277.87 514.734Q1278.06 515.619 1278.29 516.493Q1278.52 517.367 1278.8 518.228Q1279.05 519.043 1279.35 519.845Q1279.64 520.647 1279.98 521.433Q1280.31 522.218 1280.69 522.986Q1281.06 523.755 1281.47 524.503Q1281.89 525.251 1282.33 525.978Q1282.78 526.705 1283.27 527.408Q1283.75 528.112 1284.27 528.79Q1284.79 529.468 1285.34 530.12Q1285.9 530.771 1286.48 531.394Q1287.06 532.016 1287.68 532.609Q1288.29 533.202 1288.94 533.763Q1289.58 534.324 1290.25 534.852Q1290.93 535.38 1291.62 535.874Q1292.32 536.368 1293.04 536.827Q1293.76 537.285 1294.5 537.707Q1295.25 538.128 1296.01 538.512C1304.97 542.917 1314 541.999 1323.17 538.885C1323.75 538.118 1324.13 537.604 1324.42 536.684C1325.88 532.219 1325.7 522.858 1323.25 518.806L1300.1 518.951C1300.65 517.988 1301.1 517.036 1301.42 515.965C1302.8 511.223 1301.41 504.617 1299.11 500.391L1312.75 500.406L1346.49 500.676C1346.65 500.917 1346.82 501.151 1346.96 501.401C1349.58 505.881 1349.03 545.536 1347.11 551.39C1344.26 555.139 1335.4 557.39 1330.83 558.596C1312.85 563.332 1294.21 563.883 1277.66 554.034C1265.14 546.582 1255.29 534.254 1251.8 520.021C1248.35 505.937 1251.43 491.187 1258.81 478.888C1267.84 463.824 1280.5 457.593 1296.91 453.499Z"/>
	<path fill="#222526" transform="matrix(0.500488 0 0 0.5 -6.10352e-05 -3.05176e-05)" d="M653.948 198.289C659.021 182.015 667.979 167.952 683.419 159.702C697.467 152.196 714.756 150.891 729.885 155.765C744.45 160.457 756.652 170.383 763.556 184.144C772.119 201.214 769.992 215.159 764.19 232.465C775.727 238.629 787.878 251.194 796.64 260.92C828.787 296.607 855.369 349.426 852.66 398.323Q852.575 400.038 852.452 401.752Q852.328 403.465 852.167 405.175Q852.006 406.885 851.807 408.591Q851.608 410.297 851.372 411.998Q851.135 413.699 850.861 415.394Q850.587 417.09 850.275 418.779Q849.963 420.468 849.614 422.15Q849.265 423.831 848.878 425.505Q848.492 427.178 848.068 428.843Q847.645 430.508 847.185 432.162Q846.725 433.817 846.228 435.461Q845.732 437.105 845.199 438.738Q844.666 440.371 844.097 441.991Q843.528 443.612 842.923 445.22Q842.318 446.827 841.678 448.421Q841.037 450.015 840.362 451.594Q839.687 453.173 838.976 454.737Q838.266 456.3 837.521 457.848Q836.776 459.396 835.998 460.927Q835.219 462.457 834.406 463.971Q833.594 465.484 832.748 466.979Q831.902 468.473 831.023 469.949Q830.144 471.425 829.233 472.881Q828.322 474.336 827.378 475.772Q826.435 477.207 825.46 478.621Q824.485 480.035 823.479 481.427Q822.473 482.819 821.436 484.189Q820.4 485.558 819.333 486.904Q818.266 488.25 817.17 489.573Q816.074 490.895 814.948 492.192Q813.823 493.49 812.669 494.762Q811.516 496.035 810.334 497.281C802.711 505.198 793.935 511.729 785.78 519.059L786.427 518.936C813.692 513.987 834.235 525.314 855.996 540.36Q867.396 536.966 878.842 533.732C878.787 523.583 878.424 513.322 879.076 503.193C881.143 512.206 879.724 523.881 879.72 533.249L903.85 527.691C912.041 525.398 924.109 520.659 932.259 525.145C934.273 526.254 935.842 528.402 937.064 530.302C937.209 532.177 937.675 534.54 937.228 536.363C933.741 540.477 919.282 577.069 916.084 584.313C921.015 589.712 924.867 596.516 926.824 603.564C932.248 623.101 922.311 641.308 912.774 657.756C905.169 670.87 896.259 667.372 883.975 671.266C879.711 672.618 876.497 681.466 874.514 685.429C881.78 689.261 888.796 695.372 893.947 701.748C905.015 715.446 909.509 734.072 907.549 751.434C905.627 768.458 898.238 785.759 884.487 796.509C858.096 817.137 827.8 801.75 800.008 793.691Q790.162 790.816 780.113 788.764Q770.064 786.712 759.879 785.497C760.077 790.638 760.598 796 760.022 801.121Q759.864 802.456 759.639 803.781Q759.414 805.106 759.124 806.418Q758.833 807.73 758.477 809.026Q758.121 810.322 757.701 811.599Q757.281 812.876 756.797 814.13Q756.314 815.384 755.768 816.612Q755.223 817.84 754.616 819.04Q754.01 820.239 753.345 821.407Q752.679 822.575 751.956 823.708Q751.233 824.841 750.455 825.936Q749.676 827.032 748.843 828.087Q748.011 829.142 747.127 830.154Q746.243 831.167 745.309 832.133Q744.375 833.1 743.394 834.019Q742.414 834.938 741.388 835.807Q740.363 836.676 739.295 837.492C721.498 851.065 698.304 849.79 677.342 846.893C624.638 839.61 570.555 819.81 537.566 776.151C512.295 742.706 508.878 706.968 514.522 666.581C505.173 645.9 497.916 627.455 499.907 604.295C501.805 582.223 511.66 561.641 528.601 547.336C526.062 545.754 520.382 538.913 517.84 538.697C513.798 538.354 511.024 543.254 504.515 541.185C500.867 540.026 497.569 536.802 495.167 533.93C490.913 528.844 488.342 522.196 484.675 516.642C477.352 505.547 468.918 496.821 462.949 484.598C443.808 445.403 435.236 390.704 449.609 348.678C440.351 345.64 432.131 341.762 424.667 335.407Q423.431 334.375 422.248 333.282Q421.065 332.189 419.939 331.038Q418.812 329.886 417.745 328.68Q416.678 327.474 415.673 326.215Q414.668 324.957 413.728 323.649Q412.787 322.342 411.914 320.989Q411.04 319.636 410.236 318.241Q409.431 316.845 408.698 315.411Q407.965 313.978 407.305 312.509Q406.645 311.04 406.059 309.539Q405.474 308.039 404.964 306.511Q404.455 304.983 404.023 303.432Q403.591 301.88 403.238 300.309Q402.885 298.737 402.611 297.15Q402.337 295.563 402.144 293.964Q401.95 292.366 401.837 290.759C400.466 272.027 407.352 254.147 419.64 240.108Q420.739 238.854 421.897 237.656Q423.056 236.457 424.271 235.316Q425.487 234.176 426.757 233.096Q428.027 232.016 429.348 231Q430.669 229.983 432.038 229.032Q433.407 228.081 434.821 227.199Q436.235 226.316 437.691 225.503Q439.146 224.69 440.64 223.95Q442.133 223.209 443.661 222.542Q445.189 221.876 446.747 221.284Q448.306 220.693 449.891 220.178Q451.477 219.664 453.086 219.227Q454.695 218.791 456.323 218.434Q457.951 218.076 459.595 217.799Q461.238 217.521 462.894 217.325Q464.549 217.128 466.212 217.012C487.764 215.614 504.151 225.513 519.789 239.24C553.881 209.153 609.912 198.881 653.948 198.289Z"/>
	<path fill="#363738" transform="matrix(0.500488 0 0 0.5 -6.10352e-05 -3.05176e-05)" d="M873.495 728.698L876.096 730.159C875.058 734.23 875.672 738.46 876.014 742.596C873.388 742.182 869.314 736.858 867.294 734.787L873.495 728.698Z"/>
	<path fill="#CECDCB" transform="matrix(0.500488 0 0 0.5 -6.10352e-05 -3.05176e-05)" d="M842.252 733.144C840.806 732.109 839.723 730.931 838.781 729.415C835.497 724.134 836.816 717.67 838.219 712.018C840.733 718.944 843.489 725.644 842.252 733.144Z"/>
	<path fill="#F6F6F5" transform="matrix(0.500488 0 0 0.5 -6.10352e-05 -3.05176e-05)" d="M838.219 712.018C841.185 712.251 842.465 712.548 844.553 714.793C847.259 717.701 848.168 721.791 847.829 725.646C847.652 727.657 846.889 729.108 845.813 730.787C844.648 731.577 843.48 732.458 842.252 733.144C843.489 725.644 840.733 718.944 838.219 712.018Z"/>
	<path fill="#F6F6F5" transform="matrix(0.500488 0 0 0.5 -6.10352e-05 -3.05176e-05)" d="M884.928 723.522C886.547 723.789 887.263 724.386 888.459 725.41C889.005 726.86 889.533 728.343 889.521 729.912C889.486 734.682 887.141 738.561 883.963 741.9C881.953 740.538 880.928 739.097 880.472 736.661C879.55 731.728 882.226 727.388 884.928 723.522Z"/>
	<path fill="#9F9EA1" transform="matrix(0.500488 0 0 0.5 -6.10352e-05 -3.05176e-05)" d="M654.66 710.664L656.286 711.135L656.826 712.466C655.469 718.498 652.933 725.992 649.098 730.917C648.653 730.338 648.223 729.758 647.81 729.155L647.322 728.429C646.884 727.788 646.436 727.164 646.173 726.424C645.261 723.856 645.881 719.699 647.034 717.257C648.844 713.425 650.881 712.104 654.66 710.664Z"/>
	<path fill="#F6F6F5" transform="matrix(0.500488 0 0 0.5 -6.10352e-05 -3.05176e-05)" d="M866.163 708.473L868.197 708.923C870.142 710.676 871.088 712.247 871.172 714.977Q871.198 715.88 871.135 716.781Q871.071 717.682 870.919 718.572Q870.767 719.462 870.527 720.333Q870.288 721.204 869.964 722.047Q869.64 722.89 869.233 723.696Q868.827 724.503 868.344 725.266Q867.86 726.028 867.303 726.739Q866.746 727.45 866.122 728.103C863.544 726.167 861.822 724.535 861.35 721.119C860.696 716.378 863.476 712.085 866.163 708.473Z"/>
	<path fill="#363738" transform="matrix(0.500488 0 0 0.5 -6.10352e-05 -3.05176e-05)" d="M593.782 715.954Q605.21 716.633 616.651 716.23Q628.091 715.826 639.443 714.344L640.427 715.796L639.591 718.713C624.797 721.472 608.234 719.73 593.782 715.954Z"/>
	<path fill="#363738" transform="matrix(0.500488 0 0 0.5 -6.10352e-05 -3.05176e-05)" d="M636.447 726.903C643.424 735.111 650.271 744.9 658.306 751.954C661.153 750.941 665.406 748.808 668.356 749.554C668.553 752.121 667.073 753.916 665.887 756.161C661.17 756.513 658.364 756.675 654.295 754.016C644.804 747.814 638.831 737.829 636.447 726.903Z"/>
	<path fill="#F6F6F5" transform="matrix(0.500488 0 0 0.5 -6.10352e-05 -3.05176e-05)" d="M851.187 739.666C855.863 737.378 859.362 736.991 864.365 738.71C869.715 740.548 873.316 745.443 875.607 750.394C879.188 758.132 880.17 768.425 876.959 776.451C875.853 779.216 874.327 781.626 872.265 783.771C872.414 781.525 872.909 779.268 873.282 777.047C875.98 770.892 874.748 760.061 872.501 753.905C866.687 737.979 861.069 744.469 851.594 739.881C851.456 739.814 851.323 739.738 851.187 739.666Z"/>
	<path fill="#9F9EA1" transform="matrix(0.500488 0 0 0.5 -6.10352e-05 -3.05176e-05)" d="M716.318 592.77C711.246 600.656 709.748 610.91 703.962 618.262C701.096 618.366 699.585 618.08 696.96 616.927C697.272 608.963 707.471 587.933 712.923 582.335L715.584 586.575C719.907 587.436 724.556 585.176 728.82 583.974C730.557 584.924 732.377 586.124 734.277 586.692C728.174 587.878 721.952 590.18 716.318 592.77Z"/>
	<path fill="#464446" transform="matrix(0.500488 0 0 0.5 -6.10352e-05 -3.05176e-05)" d="M869.783 638.572C872.101 639.858 874.2 641.783 876.49 643.19C888.97 650.856 899.092 649.744 912.602 646.452C910.495 649.534 908.045 652.38 905.675 655.261C904.658 656.203 903.612 657.143 902.452 657.906C897.466 661.187 889.843 661.655 884.15 660.473C878.875 659.378 873.814 656.723 870.862 652.069C868.01 647.572 868.704 643.531 869.783 638.572Z"/>
	<path fill="#F6F6F5" transform="matrix(0.500488 0 0 0.5 -6.10352e-05 -3.05176e-05)" d="M712.923 582.335C725.357 576.827 741.496 574.684 754.766 571.579Q790.087 563.373 825.222 554.408L826.394 555.478C824.548 556.67 822.713 557.501 820.672 558.311C805.744 561.159 790.846 566.308 776.243 570.584C760.478 575.2 744.56 579.3 728.82 583.974C724.556 585.176 719.907 587.436 715.584 586.575L712.923 582.335Z"/>
	<path fill="#9F9EA1" transform="matrix(0.500488 0 0 0.5 -6.10352e-05 -3.05176e-05)" d="M872.265 783.771C870.133 785.931 866.504 787.594 863.57 788.292C859.728 789.207 855.925 788.545 852.631 786.362C846.321 782.18 841.947 774.802 840.672 767.403C839.086 758.207 841.475 750.743 846.811 743.312C846.918 753.535 848.063 766.036 855.908 773.493C858.807 776.248 862.913 778.204 866.979 778.057C869.052 777.982 871.268 777.55 873.282 777.047C872.909 779.268 872.414 781.525 872.265 783.771Z"/>
	<path fill="#464446" transform="matrix(0.500488 0 0 0.5 -6.10352e-05 -3.05176e-05)" d="M581.026 563.608C586.701 563.741 592.558 566.188 598.23 567.055C604.225 567.971 623.684 567.933 627.819 570.405C616.586 575.231 608.37 582.299 600.679 591.655C593.386 583.805 585.369 573.37 581.026 563.608Z"/>
	<path fill="#9F9EA1" transform="matrix(0.500488 0 0 0.5 -6.10352e-05 -3.05176e-05)" d="M421.318 251.588C429.371 238.708 440.886 229.448 455.966 225.989Q457.386 225.656 458.821 225.394Q460.255 225.133 461.701 224.942Q463.147 224.752 464.601 224.633Q466.055 224.515 467.512 224.469Q468.97 224.423 470.428 224.449Q471.886 224.476 473.341 224.574Q474.797 224.673 476.245 224.844Q477.693 225.014 479.131 225.257Q480.57 225.499 481.994 225.813Q483.418 226.126 484.825 226.51Q486.232 226.894 487.619 227.347Q489.005 227.8 490.367 228.321Q491.729 228.843 493.063 229.431Q494.398 230.019 495.702 230.673Q497.005 231.327 498.275 232.044Q499.545 232.762 500.777 233.542C511.787 240.576 521.347 251.796 526.58 263.769C515.508 261.394 504.141 232.067 471.868 230.362C451.427 229.282 435.996 238.349 421.318 251.588Z"/>
	<path fill="#464446" transform="matrix(0.500488 0 0 0.5 -6.10352e-05 -3.05176e-05)" d="M802.916 749.027C805.84 752.847 806.629 762.461 808.417 767.436C811.68 776.514 815.866 783.696 821.611 791.404L800.743 784.423C794.217 781.994 782.563 781.749 777.39 777.843C777.39 775.068 781.374 773.386 783.603 771.855C792.395 765.814 797.911 758.287 802.916 749.027Z"/>
	<path fill="#363738" transform="matrix(0.500488 0 0 0.5 -6.10352e-05 -3.05176e-05)" d="M486.283 329.958C485.885 333.6 485.511 336.689 483.099 339.603C480.096 343.23 474.182 344.851 469.675 345.097C454.588 345.92 439.193 339.342 428.031 329.451C416.75 319.455 409.539 306.349 408.68 291.107C407.974 278.589 409.878 264.664 418.423 255.045C411.322 269.791 409.478 285.685 414.937 301.348C420.009 315.897 430.86 326.316 444.582 332.724C454.262 337.244 467.546 340.596 477.864 336.95C482.196 335.419 484.082 333.872 486.283 329.958Z"/>
	<path fill="#CECDCB" transform="matrix(0.500488 0 0 0.5 -6.10352e-05 -3.05176e-05)" d="M825.222 554.408C834.774 550.251 847.4 548.687 857.637 546.152C877.256 541.293 897.542 534.88 917.449 531.697C920.828 531.157 924.13 530.788 927.45 531.821L928.214 533.384C928.121 533.579 928.038 533.779 927.935 533.969C926.475 536.675 921.91 538.987 919.137 539.992C913.222 542.135 905.901 542.881 899.689 544.354C887.374 547.276 875.139 550.64 862.883 553.807C859.159 550.626 855.745 550.092 850.91 550.511C841.554 551.321 829.539 560.447 820.672 558.311C822.713 557.501 824.548 556.67 826.394 555.478L825.222 554.408Z"/>
	<path fill="#9F9EA1" transform="matrix(0.500488 0 0 0.5 -6.10352e-05 -3.05176e-05)" d="M820.672 558.311C829.539 560.447 841.554 551.321 850.91 550.511C855.745 550.092 859.159 550.626 862.883 553.807C820.238 565.584 776.939 574.969 734.277 586.692C732.377 586.124 730.557 584.924 728.82 583.974C744.56 579.3 760.478 575.2 776.243 570.584C790.846 566.308 805.744 561.159 820.672 558.311Z"/>
	<path fill="#9F9EA1" transform="matrix(0.500488 0 0 0.5 -6.10352e-05 -3.05176e-05)" d="M480.742 495.569C473.123 482.788 466.939 469.678 462.362 455.498C453.423 427.807 451.872 398.865 456.153 370.189C457.056 364.143 457.72 357.279 460.522 351.78C463.773 350.471 468.102 350.983 471.604 351.021C468.34 351.966 466.562 351.956 464.794 355.212C451.12 380.396 462.085 434.904 470.622 460.786C473.051 468.15 475.758 478.147 479.892 484.62C480.598 488.171 480.571 491.951 480.742 495.569Z"/>
	<path fill="#9F9EA1" transform="matrix(0.500488 0 0 0.5 -6.10352e-05 -3.05176e-05)" d="M701.941 160.384C716.399 157.946 730.405 160.544 742.464 169.259Q743.483 169.991 744.464 170.773Q745.444 171.555 746.385 172.384Q747.326 173.214 748.224 174.09Q749.121 174.966 749.974 175.886Q750.828 176.806 751.633 177.767Q752.439 178.728 753.196 179.728Q753.953 180.728 754.659 181.765Q755.365 182.802 756.019 183.873Q756.672 184.944 757.271 186.046Q757.87 187.148 758.413 188.279Q758.956 189.409 759.442 190.566Q759.927 191.722 760.355 192.902Q760.782 194.081 761.15 195.28Q761.518 196.479 761.826 197.695Q762.134 198.911 762.38 200.141Q762.626 201.371 762.811 202.612C764.037 211.229 763.06 221.31 757.514 228.411C757.061 228.991 756.707 229.275 756.035 229.557C755.617 225.901 757.642 221.281 758.447 217.65C760.821 206.947 758.112 194.389 752.212 185.266C743.695 172.097 731.343 167.43 716.752 164.308C701.721 165.479 688.246 168.249 677.944 180.362C673.009 186.164 669.942 192.807 667.42 199.924C665.506 199.728 664.154 199.501 662.435 198.615C662.221 198.05 662.028 197.496 661.905 196.902C661.185 193.427 663.727 189.259 665.534 186.458C673.992 173.354 686.524 163.539 701.941 160.384Z"/>
	<path fill="#CECDCB" transform="matrix(0.500488 0 0 0.5 -6.10352e-05 -3.05176e-05)" d="M851.187 739.666C851.323 739.738 851.456 739.814 851.594 739.881C861.069 744.469 866.687 737.979 872.501 753.905C874.748 760.061 875.98 770.892 873.282 777.047C871.268 777.55 869.052 777.982 866.979 778.057C862.913 778.204 858.807 776.248 855.908 773.493C848.063 766.036 846.918 753.535 846.811 743.312L851.187 739.666Z"/>
	<path fill="#9F9EA1" transform="matrix(0.500488 0 0 0.5 -6.10352e-05 -3.05176e-05)" d="M803.116 711.251L805.904 711.305C807.501 716.096 802.764 725.999 800.579 730.36C790.851 749.778 777.043 764.067 758.64 775.38C757.198 768.638 755.716 762.052 752.606 755.837C762.81 750.713 772.789 745.637 781.727 738.422C789.431 732.203 802.002 721.639 803.116 711.251Z"/>
	<path fill="#464446" transform="matrix(0.500488 0 0 0.5 -6.10352e-05 -3.05176e-05)" d="M706.405 184.204C708.439 184.049 710.495 183.903 712.535 183.938C719.507 184.059 725.916 187.231 730.656 192.282C734.847 196.747 738.354 203.541 738.057 209.813C737.915 212.806 736.93 214.804 734.66 216.796C731.315 217.304 729.685 216.129 726.607 214.827Q717.455 210.939 707.963 207.978Q698.471 205.018 688.732 203.013C693.068 193.197 696.283 188.659 706.405 184.204Z"/>
	<path fill="#464446" transform="matrix(0.500488 0 0 0.5 -6.10352e-05 -3.05176e-05)" d="M785.704 525.112C794.38 523.042 815.918 525.464 823.814 529.494C830.161 532.733 835.491 537.603 842.2 540.21C842.493 540.324 842.788 540.432 843.082 540.543L843.437 542.137C838.367 543.964 832.858 544.998 827.624 546.295C819.188 548.688 809.066 552.069 800.245 551.557C795.196 544.05 787.511 538.948 781.096 532.748C779.34 531.051 778.098 529.853 778.032 527.378C780.156 525.441 782.981 525.42 785.704 525.112Z"/>
	<path fill="#F6F6F5" transform="matrix(0.500488 0 0 0.5 -6.10352e-05 -3.05176e-05)" d="M729.534 731.897C753.51 723.876 778.726 718.029 803.116 711.251C802.002 721.639 789.431 732.203 781.727 738.422C772.789 745.637 762.81 750.713 752.606 755.837C747.098 744.924 739.899 738.1 729.534 731.897Z"/>
	<path fill="#464446" transform="matrix(0.500488 0 0 0.5 -6.10352e-05 -3.05176e-05)" d="M914.614 595.425C917.025 596.771 919.19 601.797 920.153 604.492C923.09 612.716 922.594 623.163 918.667 630.987C916.032 636.237 911.681 640.327 906.025 642.1C899.023 644.296 889.407 642.917 882.984 639.51C879.158 637.48 876.245 634.344 875.015 630.142C874.161 627.222 874.032 623.894 875.608 621.183C876.86 619.03 878.499 617.23 880.985 616.634L882.699 617.883Q884.478 619.267 886.334 620.547C894.059 625.822 902.165 626.52 911.22 624.664C914.808 623.929 916.705 623.006 918.71 619.937L918.272 617.97C917.214 618.446 916.152 618.898 915.05 619.266C909.306 621.181 900.067 621.199 894.568 618.382C890.623 616.361 886.767 612.324 885.38 608.109C887.609 597.52 907.543 601.585 914.614 595.425Z"/>
	<path fill="#464446" transform="matrix(0.500488 0 0 0.5 -6.10352e-05 -3.05176e-05)" d="M716.752 164.308C731.343 167.43 743.695 172.097 752.212 185.266C758.112 194.389 760.821 206.947 758.447 217.65C757.642 221.281 755.617 225.901 756.035 229.557C751.361 226.889 746.75 224.233 742.324 221.162C744.413 212.395 744.944 204.353 741.099 195.96Q740.762 195.237 740.391 194.531Q740.019 193.825 739.614 193.138Q739.208 192.451 738.769 191.785Q738.331 191.119 737.86 190.475Q737.389 189.831 736.888 189.21Q736.386 188.59 735.854 187.995Q735.323 187.4 734.763 186.832Q734.203 186.264 733.616 185.723Q733.03 185.183 732.417 184.672Q731.804 184.161 731.167 183.681Q730.531 183.201 729.871 182.752Q729.211 182.303 728.531 181.887Q727.85 181.471 727.15 181.089Q726.449 180.707 725.731 180.36Q725.013 180.012 724.279 179.701Q723.545 179.389 722.796 179.113Q722.093 178.849 721.378 178.621Q720.662 178.392 719.936 178.2Q719.211 178.008 718.476 177.852Q717.741 177.696 717 177.577Q716.259 177.458 715.512 177.376Q714.766 177.294 714.016 177.25Q713.267 177.205 712.516 177.198Q711.765 177.191 711.015 177.222Q710.264 177.253 709.516 177.321Q708.769 177.389 708.025 177.494Q707.282 177.599 706.544 177.742Q705.807 177.884 705.078 178.063Q704.348 178.242 703.629 178.457Q702.91 178.672 702.202 178.923Q701.494 179.174 700.8 179.46Q700.105 179.746 699.426 180.066C690.105 184.511 684.88 192.375 681.448 201.781C676.756 201.319 672.087 200.587 667.42 199.924C669.942 192.807 673.009 186.164 677.944 180.362C688.246 168.249 701.721 165.479 716.752 164.308Z"/>
	<path fill="#CECDCB" transform="matrix(0.500488 0 0 0.5 -6.10352e-05 -3.05176e-05)" d="M762.27 535.582L773.935 541.803C735.286 561.81 646.025 575.823 621.86 605.765C615.024 602.751 608.917 598.128 603.032 593.603C624.002 571.567 638.574 571.233 667.397 565.738C682.81 564.784 701.734 558.94 716.281 553.763C720.261 553.372 724.937 551.206 728.783 549.952C736.299 547.106 744.223 544.535 751.195 540.512C755.132 539.31 758.636 537.472 762.27 535.582Z"/>
	<path fill="#464446" transform="matrix(0.500488 0 0 0.5 -6.10352e-05 -3.05176e-05)" d="M815.938 708.703C828.245 704.74 862.773 690.104 873.548 694.013C883.726 697.705 892.11 708.673 896.409 718.244C901.793 730.23 902.453 750.467 897.601 762.94C893.914 772.421 886.468 785.952 876.945 790.167L875.445 789.536C893.045 768.156 879.156 761.381 881.535 749.275C881.586 749.015 886.767 748.289 887.963 747.517C890.951 745.588 892.307 740.68 892.883 737.403C893.664 732.965 893.778 725.446 890.704 721.754C888.899 719.588 887.63 719.759 885.065 719.737C879.764 722.224 878.271 724.826 876.096 730.159L873.495 728.698C875.603 722.444 877.129 715.014 873.981 708.747C873.188 707.169 872.024 706.304 870.535 705.436C867.454 704.763 864.641 705.043 861.879 706.663C859.228 708.217 857.833 710.814 857.277 713.74C855.875 721.125 859.425 726.434 860.087 733.326C857.194 733.752 854.442 734.294 851.535 733.705C852.384 726.459 853.002 716.573 848.246 710.449C846.77 708.548 844.803 707.39 842.421 707.076C840.121 706.772 837.422 707.163 835.593 708.654C832.146 711.465 831.054 716.793 830.88 721.002C830.649 726.596 831.849 733.671 835.809 737.914C837.358 739.574 839.807 740.248 841.681 741.567C839.823 745.05 837.025 747.971 835.295 751.438C832.353 757.332 833.131 767.789 834.954 773.925Q835.173 774.684 835.429 775.432Q835.685 776.18 835.978 776.914Q836.271 777.648 836.6 778.367Q836.929 779.085 837.293 779.787Q837.657 780.488 838.056 781.171Q838.455 781.853 838.887 782.515Q839.318 783.177 839.783 783.817Q840.247 784.457 840.742 785.073Q841.237 785.689 841.763 786.279Q842.288 786.87 842.842 787.434Q843.396 787.997 843.977 788.533Q844.558 789.069 845.165 789.575Q845.772 790.081 846.404 790.557Q847.035 791.032 847.689 791.476Q848.343 791.919 849.019 792.33Q849.694 792.74 850.389 793.117C853.945 795.012 857.746 795.666 861.694 796.224C861.607 796.944 861.06 797.26 860.573 797.775C855.526 798.705 850.405 798.569 845.44 797.18C835.784 794.477 829.206 786.888 824.437 778.439Q823.886 777.457 823.36 776.462Q822.833 775.466 822.331 774.458Q821.829 773.45 821.352 772.431Q820.874 771.411 820.422 770.38Q819.969 769.349 819.542 768.307Q819.115 767.265 818.713 766.213Q818.311 765.161 817.935 764.1Q817.559 763.038 817.209 761.968Q816.859 760.898 816.535 759.82Q816.211 758.741 815.914 757.655Q815.616 756.569 815.345 755.476Q815.074 754.383 814.83 753.284Q814.586 752.185 814.368 751.08Q814.151 749.975 813.96 748.865Q813.77 747.756 813.606 746.641Q813.443 745.527 813.307 744.41Q813.171 743.292 813.062 742.171Q812.953 741.05 812.871 739.927Q812.789 738.804 812.735 737.68Q812.681 736.555 812.654 735.429Q812.627 734.303 812.628 733.177Q812.628 732.051 812.656 730.926Q812.684 729.8 812.739 728.675Q812.795 727.551 812.878 726.428Q812.96 725.305 813.07 724.184Q813.18 723.064 813.318 721.946Q813.455 720.828 813.62 719.714Q813.784 718.6 813.976 717.491Q814.167 716.381 814.386 715.276Q814.604 714.172 814.85 713.073Q815.095 711.974 815.367 710.881Q815.639 709.789 815.938 708.703Z"/>
	<path fill="#F6F6F5" transform="matrix(0.500488 0 0 0.5 -6.10352e-05 -3.05176e-05)" d="M773.935 541.803C780.769 545.656 786.459 550.759 792.397 555.827C773.669 560.018 728.062 568.175 713.104 575.13C708.287 577.37 704.467 580.192 701.589 584.709C695.851 593.711 692.505 605.081 688.704 615.037C665.331 614.614 643.923 614.427 621.86 605.765C646.025 575.823 735.286 561.81 773.935 541.803Z"/>
	<path fill="#464446" transform="matrix(0.500488 0 0 0.5 -6.10352e-05 -3.05176e-05)" d="M421.318 251.588C435.996 238.349 451.427 229.282 471.868 230.362C504.141 232.067 515.508 261.394 526.58 263.769C528.261 265.67 529.361 268.386 529.148 270.971C528.729 276.057 523.335 279.808 519.597 282.554Q519.054 282.95 518.504 283.337C508.684 267.372 499.057 248.92 479.186 244.197C468.652 241.693 457.617 243.789 448.48 249.511Q447.568 250.087 446.685 250.707Q445.802 251.327 444.95 251.989Q444.098 252.651 443.28 253.354Q442.461 254.057 441.678 254.799Q440.894 255.54 440.148 256.319Q439.402 257.098 438.694 257.913Q437.986 258.727 437.319 259.575Q436.652 260.423 436.027 261.302Q435.402 262.181 434.82 263.09Q434.239 263.999 433.702 264.935Q433.165 265.871 432.675 266.832Q432.184 267.792 431.741 268.776Q431.298 269.76 430.903 270.764Q430.508 271.768 430.163 272.79Q429.817 273.812 429.522 274.85Q429.227 275.887 428.982 276.938C426.5 287.824 428.795 299.093 434.893 308.39C440.675 317.205 449.211 323.351 459.595 325.479C467.906 327.181 480.648 323.238 486.283 329.958C484.082 333.872 482.196 335.419 477.864 336.95C467.546 340.596 454.262 337.244 444.582 332.724C430.86 326.316 420.009 315.897 414.937 301.348C409.478 285.685 411.322 269.791 418.423 255.045C419.262 253.539 419.97 252.671 421.318 251.588Z"/>
	<path fill="#464446" transform="matrix(0.500488 0 0 0.5 -6.10352e-05 -3.05176e-05)" d="M462.625 251.057C468.602 250.535 474.405 250.574 480.178 252.416C493.964 256.813 502.099 269.332 508.371 281.571C496.634 291.886 487.786 305.715 478.754 318.336C477.951 318.872 477.096 319.365 476.169 319.655C470.26 321.507 461.753 320.763 456.278 318.047C447.423 313.654 440.432 305.37 437.396 295.982Q437.125 295.136 436.896 294.278Q436.668 293.42 436.482 292.552Q436.297 291.683 436.156 290.806Q436.014 289.93 435.917 289.047Q435.819 288.164 435.766 287.278Q435.714 286.391 435.705 285.503Q435.697 284.615 435.733 283.728Q435.769 282.84 435.849 281.956Q435.93 281.072 436.054 280.192Q436.179 279.313 436.348 278.441Q436.517 277.569 436.729 276.707Q436.941 275.845 437.196 274.994Q437.451 274.143 437.749 273.307Q438.046 272.47 438.385 271.649Q438.724 270.828 439.104 270.026Q439.484 269.223 439.903 268.44C444.84 259.236 452.864 254.057 462.625 251.057Z"/>
	<path fill="#363738" transform="matrix(0.500488 0 0 0.5 -6.10352e-05 -3.05176e-05)" d="M680.669 839.126C628.999 828.387 575.231 813.052 543.645 767.263C526.937 743.042 517.236 710.908 522.756 681.47C522.966 680.346 522.917 680.437 523.859 679.788C544.857 699.935 558.019 708.147 586.83 714.588C576.988 718.27 565.562 722.234 560.743 732.477C557.637 739.077 558.578 746.5 561.032 753.152C570.175 777.936 600.488 800.955 623.842 811.351C633.724 815.751 644.291 819.05 654.428 822.85C652.665 809.845 653.649 799.386 656.66 786.675C659.82 811.994 665.717 819.333 680.669 839.126Z"/>
	<path fill="#363738" transform="matrix(0.500488 0 0 0.5 -6.10352e-05 -3.05176e-05)" d="M662.824 700.698C649.71 703.112 636.478 705.635 623.167 706.572C593.17 708.682 563.553 702.231 540.553 682.027C522.992 666.601 511.145 641.537 509.691 618.267C508.371 597.138 515.331 575.236 529.466 559.323C531.098 557.486 533.415 554.859 535.58 553.684C539.134 551.754 551.817 561.141 557.216 560.564C557.543 560.529 557.865 560.461 558.19 560.414C563.426 559.652 567.156 556.05 571.724 555.102C576.303 554.153 593.068 561.043 599.155 561.897C615.56 564.2 632.763 563.61 649.289 562.91C651.537 564.206 655.065 562.378 655.768 564.832C646.599 565.978 636.482 567.164 627.819 570.405C623.684 567.933 604.225 567.971 598.23 567.055C592.558 566.188 586.701 563.741 581.026 563.608L579.458 564.628C578.109 561.775 577.308 560.648 574.376 559.206C569.393 558.735 565.927 561.701 562.108 564.476C557.732 564.307 545.838 562.128 543.102 564.621C534.354 572.589 530.708 593.392 530.348 604.741C529.642 627.001 538.559 648.409 553.752 664.528C572.902 684.846 598.805 691.918 626.026 692.667C635.748 692.934 645.724 692.235 655.408 691.304C657.621 694.894 659.722 697.827 662.824 700.698Z"/>
	<path fill="#464446" transform="matrix(0.500488 0 0 0.5 -6.10352e-05 -3.05176e-05)" d="M586.83 714.588C589.115 715.085 591.455 715.742 593.782 715.954C608.234 719.73 624.797 721.472 639.591 718.713L636.447 726.903C638.831 737.829 644.804 747.814 654.295 754.016C658.364 756.675 661.17 756.513 665.887 756.161C660.776 766.423 658.746 775.479 656.66 786.675C653.649 799.386 652.665 809.845 654.428 822.85C644.291 819.05 633.724 815.751 623.842 811.351C600.488 800.955 570.175 777.936 561.032 753.152C558.578 746.5 557.637 739.077 560.743 732.477C565.562 722.234 576.988 718.27 586.83 714.588Z"/>
	<path fill="#464446" transform="matrix(0.500488 0 0 0.5 -6.10352e-05 -3.05176e-05)" d="M718.553 733.97C718.863 733.926 719.172 733.865 719.484 733.838C723.892 733.458 732.019 739.594 735.035 742.491C747.499 754.463 753.728 772.939 754.119 789.93C754.423 803.115 750.011 816.419 740.737 825.98C730.177 836.868 717.214 840.344 702.552 840.453C699.157 839.908 695.346 838.677 692.271 837.155C681.341 831.742 673.721 820.406 669.858 809.121C664.541 793.59 665.385 775.188 672.766 760.456C681.992 742.039 700.757 739.779 718.553 733.97Z"/>
	<path fill="#222526" transform="matrix(0.500488 0 0 0.5 -6.10352e-05 -3.05176e-05)" d="M700.623 762.072C699.475 757.713 698.108 751.753 700.276 747.474C701.376 745.301 703.245 744.057 705.557 743.574C708.057 743.052 710.483 744.117 712.458 745.589C715.622 747.947 717.616 751.687 718.113 755.571C718.695 760.124 718.034 764.639 716.016 768.761C713.94 769.407 711.324 770.374 709.142 769.963C705.115 769.204 702.824 765.146 700.623 762.072Z"/>
	<path fill="#F6F6F5" transform="matrix(0.500488 0 0 0.5 -6.10352e-05 -3.05176e-05)" d="M705.654 746.144C706.425 746.29 706.161 746.222 707.095 746.503C710.035 747.386 711.972 749.136 713.353 751.837C715.43 755.902 715.158 760.62 713.742 764.819C713.607 764.795 713.471 764.777 713.336 764.749C713.113 764.702 712.893 764.644 712.67 764.595C712.433 764.543 712.194 764.501 711.958 764.445C709.172 763.789 707.477 762.37 706.07 759.873C703.703 755.674 704.455 750.551 705.654 746.144Z"/>
	<path fill="#222526" transform="matrix(0.500488 0 0 0.5 -6.10352e-05 -3.05176e-05)" d="M717.159 770.164Q721.233 769.815 725.301 769.405C724.07 764.791 722.506 755.541 724.921 751.199C725.817 749.588 726.825 748.699 728.657 748.278C730.739 747.8 733.772 748.775 735.562 749.912C744.24 755.424 734.413 767.033 737.066 772.883C740.687 780.869 746.496 781.305 748.129 792.907C749.515 802.749 746.987 813.372 740.991 821.34C736.532 827.265 727.247 832.101 719.761 832.651C715.758 832.946 711.954 830.781 709.004 828.285C705.213 825.079 702.314 820.963 700.075 816.559C694.027 804.666 699.481 797.449 698.474 785.548C696.645 786.548 694.944 787.036 692.927 787.538C691.198 787.271 689.72 786.865 688.338 785.764C683.906 782.235 680.83 775.418 680.329 769.852C679.989 766.08 680.695 763.207 683.156 760.301C684.775 759.252 686.073 758.654 688.031 758.553C691.856 758.356 694.472 760.228 697.157 762.66L697.877 763.32L700.623 762.072C702.824 765.146 705.115 769.204 709.142 769.963C711.324 770.374 713.94 769.407 716.016 768.761L717.159 770.164Z"/>
	<path fill="#F6F6F5" transform="matrix(0.500488 0 0 0.5 -6.10352e-05 -3.05176e-05)" d="M729.473 750.46C732.034 751.577 734.227 753.407 735.348 756.033C736.909 759.691 736.057 763.152 734.603 766.656L731.731 765.802C730.272 764.563 729.241 763.436 728.509 761.637C726.984 757.888 727.845 753.979 729.473 750.46Z"/>
	<path fill="#363738" transform="matrix(0.500488 0 0 0.5 -6.10352e-05 -3.05176e-05)" d="M700.623 762.072C702.824 765.146 705.115 769.204 709.142 769.963C711.324 770.374 713.94 769.407 716.016 768.761L717.159 770.164C711.207 772.597 706.235 776.654 701.15 780.497C701.337 773.751 700.803 769.503 697.877 763.32L700.623 762.072Z"/>
	<path fill="#F6F6F5" transform="matrix(0.500488 0 0 0.5 -6.10352e-05 -3.05176e-05)" d="M687.694 762.212C689.517 762.688 691.014 763.466 692.496 764.62C694.976 766.552 696.886 769.814 697.226 772.953C697.578 776.205 697.132 778.487 695.129 781.113C694.568 780.984 694.008 780.809 693.465 780.617C690.718 779.646 688.87 777.695 687.652 775.08C685.639 770.758 686.196 766.56 687.694 762.212Z"/>
	<path fill="#CECDCB" transform="matrix(0.500488 0 0 0.5 -6.10352e-05 -3.05176e-05)" d="M705.115 785.607C708.595 779.836 711.979 775.358 718.844 773.683C723.122 772.64 727.284 773.296 731.037 775.602C736.202 778.776 739.585 784.393 740.896 790.222C742.843 798.881 740.948 808.69 736.054 816.096C735.865 816.383 735.661 816.662 735.457 816.939C733.756 820.026 730.608 822.35 727.633 824.138C724.538 825.999 721.697 827.12 718.039 826.099C712.999 824.691 709.155 819.943 706.807 815.507C701.785 806.02 702.076 795.621 705.115 785.607Z"/>
	<path fill="#828085" transform="matrix(0.500488 0 0 0.5 -6.10352e-05 -3.05176e-05)" d="M872.498 558.219C888.821 552.175 906.667 549.31 923.417 544.326C920.393 551.661 907.736 587.581 902.007 590.978C900.527 591.265 898.813 591.768 897.322 591.832C883.541 596.678 874.369 607.869 868.176 620.982C863.741 630.374 859.69 644.592 863.407 654.685C865.22 659.607 868.495 662.951 872.433 666.264C869.789 672.295 867.381 679.732 863.076 684.775Q815.259 698.678 767.16 711.571C773.405 694.691 783.949 677.869 792.291 661.901L840.251 569.414C850.727 565.685 861.699 563.572 872.219 559.969L872.498 558.219Z"/>
	<path fill="#706E71" transform="matrix(0.500488 0 0 0.5 -6.10352e-05 -3.05176e-05)" d="M854.056 653.316C854.376 638.831 862.62 612.461 872.504 601.739C879.424 594.234 887.508 592.261 897.322 591.832C883.541 596.678 874.369 607.869 868.176 620.982C863.741 630.374 859.69 644.592 863.407 654.685C865.22 659.607 868.495 662.951 872.433 666.264C869.789 672.295 867.381 679.732 863.076 684.775C863.66 679.772 865.881 675.176 867.803 670.568C860.808 665.406 857.814 661.047 854.056 653.316Z"/>
	<path fill="#CECDCB" transform="matrix(0.500488 0 0 0.5 -6.10352e-05 -3.05176e-05)" d="M486.348 319.879C492.292 310.814 499.075 301.259 506.239 293.138C512.62 285.905 514.5 289.656 523.098 289.052L524.064 288.978C518.596 298.386 512.46 307.225 507.772 317.095Q506.942 318.864 506.15 320.651Q505.359 322.438 504.606 324.241Q503.853 326.044 503.139 327.864Q502.426 329.683 501.751 331.517Q501.077 333.351 500.443 335.2Q499.808 337.048 499.214 338.91Q498.619 340.771 498.065 342.645Q497.511 344.52 496.998 346.405Q496.484 348.291 496.012 350.187Q495.539 352.083 495.107 353.989Q494.676 355.895 494.285 357.81Q493.895 359.725 493.546 361.648Q493.197 363.57 492.89 365.5Q492.583 367.43 492.317 369.366Q492.052 371.303 491.828 373.244Q491.604 375.185 491.423 377.131Q491.241 379.077 491.101 381.026Q490.962 382.975 490.864 384.927Q490.767 386.879 490.712 388.832Q490.656 390.786 490.643 392.74Q490.63 394.694 490.659 396.648Q490.688 398.602 490.759 400.555Q490.831 402.508 490.944 404.459Q491.058 406.41 491.213 408.358Q491.369 410.306 491.566 412.25Q491.764 414.194 492.003 416.134Q492.243 418.073 492.524 420.007Q492.805 421.941 493.128 423.869Q493.452 425.796 493.816 427.716Q494.181 429.636 494.587 431.547Q494.993 433.459 495.44 435.361Q495.887 437.264 496.375 439.156C505.107 472.247 523.585 501.1 553.588 518.479C596.129 543.121 653.875 543.266 701.477 535.893C716.36 533.588 731.23 528.924 746.159 527.538C737.891 532.14 728.714 535.83 719.808 538.993C678.345 553.717 625.254 559.423 582.482 547.095C569.95 543.483 558.342 537.695 546.614 532.096C549.566 535.231 552.662 538.355 555.341 541.726C557.609 544.581 559.207 547.376 558.754 551.053C556.461 552.113 555.356 551.926 552.904 551.295C532.787 546.117 519.32 526.337 509.523 509.621C510.055 515.469 511.38 523.278 509.808 528.933C509.291 530.792 509.171 530.883 507.525 531.848C506.48 531.554 505.561 531.179 504.644 530.582C494.04 523.683 484.382 491.184 481.485 478.925L479.892 484.62C475.758 478.147 473.051 468.15 470.622 460.786C462.085 434.904 451.12 380.396 464.794 355.212C466.562 351.956 468.34 351.966 471.604 351.021C476.602 349.969 481.436 349.079 485.666 346.016C489.167 343.48 491.993 340.153 492.6 335.748C493.478 329.372 490.042 324.669 486.348 319.879Z"/>
	<path fill="#9F9EA1" transform="matrix(0.500488 0 0 0.5 -6.10352e-05 -3.05176e-05)" d="M721.078 596.882C749.095 587.523 784.42 580.368 813.497 572.891C829.354 568.813 858.565 559.449 872.498 558.219L872.219 559.969C861.699 563.572 850.727 565.685 840.251 569.414L792.291 661.901C783.949 677.869 773.405 694.691 767.16 711.571C746.373 715.258 715.72 725.674 694.771 731.987C685.097 734.903 670.211 741.767 660.193 741.13C657.626 739.611 656.416 738.592 654.855 735.997C655.987 727.43 661.424 718.812 664.137 710.547L664.331 709.941C676.365 704.99 689.841 704.598 701.028 697.195C709.467 691.61 712.305 684.761 714.309 675.312C721.62 668.645 723.457 662.618 724.291 653.037C722.058 650.112 722.896 644.215 722.426 640.544C721.382 632.396 716.614 627.54 710.31 622.738C713.541 613.875 716.984 605.391 721.078 596.882Z"/>
	<path fill="#706E71" transform="matrix(0.500488 0 0 0.5 -6.10352e-05 -3.05176e-05)" d="M724.291 653.037C727.257 660.016 725.569 667.92 722.779 674.705C717.076 688.575 707.289 702.148 693.072 707.933C684.73 711.328 675.763 713.565 666.709 712.671C665.751 711.815 664.906 711.121 664.331 709.941C676.365 704.99 689.841 704.598 701.028 697.195C709.467 691.61 712.305 684.761 714.309 675.312C721.62 668.645 723.457 662.618 724.291 653.037Z"/>
	<path fill="#464446" transform="matrix(0.500488 0 0 0.5 -6.10352e-05 -3.05176e-05)" d="M562.108 564.476C565.927 561.701 569.393 558.735 574.376 559.206C577.308 560.648 578.109 561.775 579.458 564.628C585.357 585.221 595.173 600.212 614.235 610.782C633.977 621.728 656.773 622.852 678.859 623.393C684.271 623.526 691.368 622.646 696.507 624.108C704.874 626.488 713.559 635.098 716.049 643.41C716.804 645.928 716.89 648.675 715.476 650.991C711.945 656.777 698.048 660.304 691.566 661.463C684.761 662.681 669.199 661.681 664.49 664.521L664.211 666.271C669.018 670.416 684.34 669.809 690.691 669.389C697.52 668.936 708.738 662.922 714.453 664.226C702.139 677.759 671.773 679.678 667.915 685.076C672.957 688.159 685.74 686.483 691.463 685.136C696.855 683.866 702.356 680.801 707.562 678.713C698.037 693.233 686.272 695.903 670.097 699.261Q666.468 700.015 662.824 700.698C659.722 697.827 657.621 694.894 655.408 691.304C645.724 692.235 635.748 692.934 626.026 692.667C598.805 691.918 572.902 684.846 553.752 664.528C538.559 648.409 529.642 627.001 530.348 604.741C530.708 593.392 534.354 572.589 543.102 564.621C545.838 562.128 557.732 564.307 562.108 564.476Z"/>
	<path fill="#F6F6F5" transform="matrix(0.500488 0 0 0.5 -6.10352e-05 -3.05176e-05)" d="M526.14 248.284C574.107 216.065 634.387 201.098 691.659 212.361C741.546 222.172 781.43 253.236 809.35 295.007C832.741 330.001 847.831 371.119 839.3 413.466C830.733 455.995 801.846 492.947 765.992 516.568Q756.476 522.778 746.159 527.538C731.23 528.924 716.36 533.588 701.477 535.893C653.875 543.266 596.129 543.121 553.588 518.479C523.585 501.1 505.107 472.247 496.375 439.156Q495.887 437.264 495.44 435.361Q494.993 433.459 494.587 431.547Q494.181 429.636 493.816 427.716Q493.452 425.796 493.129 423.869Q492.805 421.941 492.524 420.007Q492.243 418.073 492.003 416.134Q491.764 414.194 491.566 412.25Q491.369 410.306 491.213 408.358Q491.058 406.41 490.944 404.459Q490.831 402.508 490.759 400.555Q490.688 398.602 490.659 396.648Q490.63 394.694 490.643 392.74Q490.656 390.786 490.712 388.832Q490.767 386.879 490.864 384.927Q490.962 382.975 491.101 381.026Q491.241 379.077 491.423 377.131Q491.604 375.185 491.828 373.244Q492.052 371.302 492.317 369.366Q492.583 367.43 492.89 365.5Q493.197 363.57 493.546 361.648Q493.895 359.725 494.285 357.81Q494.676 355.895 495.107 353.989Q495.539 352.083 496.012 350.187Q496.484 348.291 496.998 346.405Q497.511 344.519 498.065 342.645Q498.619 340.771 499.214 338.91Q499.808 337.048 500.443 335.2Q501.077 333.351 501.751 331.517Q502.426 329.683 503.139 327.864Q503.853 326.044 504.606 324.241Q505.359 322.438 506.15 320.651Q506.942 318.864 507.772 317.095C512.46 307.225 518.596 298.386 524.064 288.978C529.539 284.075 535.077 279.439 535.519 271.514C535.975 263.358 530.309 254.983 526.14 248.284Z"/>
	<path fill="#CECDCB" transform="matrix(0.500488 0 0 0.5 -6.10352e-05 -3.05176e-05)" d="M696.643 479.961C698.592 485.274 700.699 489.527 706.088 491.997C715.001 496.082 722.549 492.833 729.482 501.267C720.529 498.703 707.517 500.847 700.526 493.798C696.708 489.948 696.607 485.067 696.643 479.961Z"/>
	<path fill="#CECDCB" transform="matrix(0.500488 0 0 0.5 -6.10352e-05 -3.05176e-05)" d="M703.621 440.35C719.835 451.435 740.864 443.655 750.565 449.3C738.598 451.06 720.969 453.763 709.731 448.146C706.135 446.349 704.813 444.056 703.621 440.35Z"/>
	<path fill="#222526" transform="matrix(0.500488 0 0 0.5 -6.10352e-05 -3.05176e-05)" d="M737.54 261.228C739.922 260.871 742.455 260.672 744.864 260.86C755.562 261.696 763.405 272.006 769.878 279.453C765.067 277.221 760.503 274.307 755.92 271.64C755.668 271.506 755.417 271.369 755.164 271.238C744.857 265.928 738.473 267.593 727.962 270.882C729.827 265.837 733.088 263.84 737.54 261.228Z"/>
	<path fill="#1E2323" transform="matrix(0.500488 0 0 0.5 -6.10352e-05 -3.05176e-05)" d="M584.104 302.021C584.371 301.982 584.638 301.94 584.906 301.905C589.277 301.322 595.287 302.156 598.87 304.863L598.898 306.729C597.592 306.724 596.283 306.755 594.986 306.918C585.555 308.103 581.186 312.699 575.498 319.896C573.842 322.772 572.853 326.428 571.56 329.526L570.317 329.016L571.459 329.553C569.535 326.909 569.489 324.596 569.974 321.29C571.159 313.215 577.662 306.31 584.104 302.021Z"/>
	<path fill="#1E2323" transform="matrix(0.500488 0 0 0.5 -6.10352e-05 -3.05176e-05)" d="M766.101 484.029L766.851 478.642L767.587 478.928L767.309 478.335L766.625 480.112C767.109 480.611 767.776 481.159 768.165 481.725C768.522 482.244 768.863 482.829 769.248 483.356L770.62 482.753L771.24 477.643L772.217 482.165C771.037 489.007 767.887 495.577 762.145 499.719C755.208 504.723 746.278 505.416 738.055 504.003C736.611 503.755 735.21 503.395 733.84 502.869L739.293 501.61L735.416 499.037L735.317 497.666C741.448 499.53 748.895 500.399 754.918 497.719C761.179 494.933 763.71 490.144 766.101 484.029Z"/>
	<path fill="#222526" transform="matrix(0.500488 0 0 0.5 -6.10352e-05 -3.05176e-05)" d="M703.621 440.35C702.884 435.498 701.685 430.813 704.931 426.592C715.353 413.039 740.602 407.282 756.679 405.532C763.034 404.84 771.35 404.373 776.721 408.478C778.966 410.195 780.141 412.716 780.337 415.504C780.932 423.941 773.461 434.185 767.936 440.228Q763.578 444.905 758.897 449.257C760.22 456.012 761.024 462.446 761.269 469.327C769.303 470.73 776.833 472.278 784.072 467.27C790.305 462.959 794.569 453.331 795.738 445.943C796.139 443.41 796.09 440.809 796.736 438.33C799.391 443.397 798.073 454.072 796.429 459.223C794.223 466.138 789.209 471.527 782.778 474.807C778.987 476.741 773.773 476.967 772.401 481.401C772.324 481.652 772.278 481.911 772.217 482.165L771.24 477.643L770.62 482.753L769.248 483.356C768.863 482.829 768.522 482.244 768.165 481.725C767.776 481.159 767.109 480.611 766.625 480.112L767.309 478.335L767.587 478.928L766.851 478.642L766.101 484.029C763.71 490.144 761.179 494.933 754.918 497.719C748.895 500.399 741.448 499.53 735.317 497.666L735.416 499.037L739.293 501.61L733.84 502.869L729.482 501.267C722.549 492.833 715.001 496.082 706.088 491.997C700.699 489.527 698.592 485.274 696.643 479.961L697.523 478.664C698.542 479.702 699.557 480.734 700.553 481.793C704.971 486.488 708.968 488.774 715.59 488.869C730.135 489.077 745.148 478.963 755.093 469.048C754.859 461.919 753.177 455.85 750.565 449.3C740.864 443.655 719.835 451.435 703.621 440.35Z"/>
	<path fill="#ED749E" transform="matrix(0.500488 0 0 0.5 -6.10352e-05 -3.05176e-05)" d="M735.317 497.666C734.053 495.588 732.265 495.546 731.669 492.834C736.497 490.102 752.12 485.951 754.526 483.145C755.416 482.106 756.601 480.906 757.995 480.751C760.783 480.441 764.081 482.296 766.101 484.029C763.71 490.144 761.179 494.933 754.918 497.719C748.895 500.399 741.448 499.53 735.317 497.666Z"/>
	<path fill="#222526" transform="matrix(0.500488 0 0 0.5 -6.10352e-05 -3.05176e-05)" d="M736.808 292.279C753.669 290.113 770.45 294.648 785.424 302.286C803.506 311.509 817.818 325.751 824.131 345.316C828.332 358.336 831.658 378.749 825.05 391.31C821.123 398.775 815.976 401.535 808.197 404.054C797.531 404.976 787.567 403.148 777.615 399.358C754.949 390.724 733.409 374.002 723.427 351.426C717.881 338.882 714.101 322.108 719.399 308.984C722.825 300.494 728.622 295.812 736.808 292.279Z"/>
	<path fill="#9F9EA1" transform="matrix(0.500488 0 0 0.5 -6.10352e-05 -3.05176e-05)" d="M753.755 298.888C773.695 300.733 794.667 311.173 807.499 326.678C818.818 340.356 823.77 360.849 821.936 378.4C821.332 384.169 819.149 390.035 814.574 393.819C814.229 394.104 813.868 394.369 813.507 394.633C814.115 391.668 816.5 388.7 817.769 385.937C821.396 378.033 819.978 368.082 818.128 359.826C812.704 335.619 796.88 314.201 773.378 305.039C767.656 302.809 759.066 302.449 754.119 299.149C753.995 299.066 753.876 298.975 753.755 298.888Z"/>
	<path fill="#464446" transform="matrix(0.500488 0 0 0.5 -6.10352e-05 -3.05176e-05)" d="M813.507 394.633C811.998 395.99 810.596 396.883 808.659 397.469C795.029 401.598 776.656 393.849 764.738 387.383C746.85 377.678 731.391 361.376 725.54 341.584C722.292 330.599 721.885 316.945 727.719 306.688C730.494 301.808 734.975 299.135 740.359 297.801C744.318 296.819 750.15 296.792 753.755 298.888C753.876 298.975 753.995 299.066 754.119 299.149C759.066 302.449 767.656 302.809 773.378 305.039C796.88 314.201 812.704 335.619 818.128 359.826C819.978 368.082 821.396 378.033 817.769 385.937C816.5 388.7 814.115 391.668 813.507 394.633Z"/>
	<path fill="#1E2323" transform="matrix(0.500488 0 0 0.5 -6.10352e-05 -3.05176e-05)" d="M756.821 374.817C749.235 368.035 745.711 359.445 745.115 349.316C744.72 342.6 746.073 335.75 750.693 330.637C754.353 326.586 759.616 324.364 765.044 324.214C771.832 324.025 778.25 327.145 783.014 331.854C789.315 338.083 792.212 346.565 792.183 355.316C792.159 362.291 790.457 369.775 785.275 374.784C782.947 377.033 780.278 378.591 777.101 379.238C775.035 380.105 772.243 380.278 770.017 380.258C764.901 380.213 760.434 378.4 756.821 374.817Z"/>
	<path fill="#F6F6F5" transform="matrix(0.500488 0 0 0.5 -6.10352e-05 -3.05176e-05)" d="M750.951 358.765C749.355 352.888 748.872 344.548 751.903 339.011C753.952 335.269 757.737 332.478 761.84 331.412C766.544 330.189 771.431 331.181 775.541 333.687Q776.088 334.026 776.617 334.392Q777.147 334.758 777.657 335.149Q778.168 335.541 778.659 335.957Q779.15 336.373 779.62 336.812Q780.09 337.252 780.538 337.714Q780.986 338.176 781.41 338.659Q781.835 339.143 782.235 339.647Q782.635 340.15 783.01 340.673Q783.385 341.196 783.734 341.737Q784.083 342.277 784.405 342.834Q784.727 343.392 785.022 343.964Q785.316 344.536 785.582 345.122Q785.848 345.708 786.084 346.306Q786.321 346.905 786.528 347.514Q786.735 348.123 786.912 348.742Q787.089 349.36 787.235 349.987C789.075 357.758 787.475 364.921 784.011 371.906L783.38 370.154C783.425 369.822 783.477 369.49 783.516 369.157C784.264 362.735 782.57 356.407 778.568 351.304C775.433 347.307 770.846 343.933 765.673 343.375C762.493 343.031 759.501 343.837 757.04 345.907C753.153 349.175 752.003 354.098 751.623 358.917L750.951 358.765Z"/>
	<path fill="#222526" transform="matrix(0.500488 0 0 0.5 -6.10352e-05 -3.05176e-05)" d="M751.623 358.917C752.003 354.098 753.153 349.175 757.04 345.907C759.501 343.837 762.493 343.031 765.673 343.375C770.846 343.933 775.433 347.307 778.568 351.304C782.57 356.407 784.264 362.735 783.516 369.157C783.477 369.49 783.425 369.822 783.38 370.154L784.011 371.906C783.906 372.012 783.803 372.122 783.696 372.226C780.899 374.942 777.795 373.538 775.913 377.967L777.101 379.238C775.035 380.105 772.243 380.278 770.017 380.258C764.901 380.213 760.434 378.4 756.821 374.817C757.133 369.13 750.378 365.439 750.951 358.765L751.623 358.917Z"/>
	<path fill="#363738" transform="matrix(0.500488 0 0 0.5 -6.10352e-05 -3.05176e-05)" d="M750.951 358.765L751.623 358.917L754.715 365.601L755.664 365.777L756.491 363.855C758.679 368.831 759.898 373.558 765.564 375.646C767.928 376.516 770.635 376.489 772.895 375.322C776.584 373.418 778.278 369.341 779.568 365.618C781.424 366.486 782.255 368.461 783.38 370.154L784.011 371.906C783.906 372.012 783.803 372.122 783.696 372.226C780.899 374.942 777.795 373.538 775.913 377.967L777.101 379.238C775.035 380.105 772.243 380.278 770.017 380.258C764.901 380.213 760.434 378.4 756.821 374.817C757.133 369.13 750.378 365.439 750.951 358.765Z"/>
	<path fill="#222526" transform="matrix(0.500488 0 0 0.5 -6.10352e-05 -3.05176e-05)" d="M628.164 318.282C629.21 318.169 630.249 318.089 631.3 318.032C644.042 317.34 655.658 319.569 665.371 328.463C680.211 342.051 687.765 365.909 688.724 385.514C689.865 408.841 678.82 431.317 663.354 448.252C646.936 466.23 625.634 476.96 601.287 478.076C588.788 477.494 576.698 474.706 566.079 467.832C552.684 459.161 543.734 445.01 540.465 429.511C536.002 408.346 541.833 388.403 553.475 370.579C570.579 344.394 597.447 324.684 628.164 318.282Z"/>
	<path fill="#464446" transform="matrix(0.500488 0 0 0.5 -6.10352e-05 -3.05176e-05)" d="M628.97 325.273C631.259 324.973 633.564 324.703 635.872 324.624C645.73 324.289 654.939 327.216 662.198 334.045C675.252 346.324 681.837 370.032 682.25 387.531C682.737 408.209 672.546 427.497 658.54 442.174C644.056 457.353 624.607 468.72 603.25 469.183C590.336 469.034 578.917 466.48 568.272 458.851C556.894 450.696 549.561 438.18 547.32 424.416C544.03 404.207 551.8 385.145 563.344 368.911C578.573 347.494 602.706 329.651 628.97 325.273Z"/>
	<path fill="#222526" transform="matrix(0.500488 0 0 0.5 -6.10352e-05 -3.05176e-05)" d="M647.002 426.477C639.652 428.987 630.481 429.693 622.989 427.452C615.694 425.271 610.134 420.1 606.7 413.389C602.111 404.42 601.503 393.315 604.747 383.811C607.42 375.982 612.747 368.564 620.412 365.018C626.499 362.201 633.092 362.402 639.295 364.729C647.888 367.951 654.227 375.989 657.821 384.201C662.183 394.165 662.472 405.307 658.534 415.348C657.407 409.591 656.113 399.219 656.975 393.524C657.122 392.546 656.242 391.298 655.812 390.388C652.813 383.02 647.639 374.288 640.013 370.916C635.274 368.821 629.927 368.891 625.137 370.803C618.674 373.384 613.792 379.034 611.255 385.419C608.251 392.979 608.313 402.497 611.608 409.959C614.338 416.141 619.883 420.813 626.174 423.099C627.875 423.717 629.57 424.143 631.366 424.386C636.585 425.303 641.699 426.194 647.002 426.477Z"/>
	<path fill="#F6F6F5" transform="matrix(0.500488 0 0 0.5 -6.10352e-05 -3.05176e-05)" d="M631.366 424.386C629.57 424.143 627.875 423.717 626.174 423.099C619.883 420.813 614.338 416.141 611.608 409.959C608.313 402.497 608.251 392.979 611.255 385.419C613.792 379.034 618.674 373.384 625.137 370.803C629.927 368.891 635.274 368.821 640.013 370.916C647.639 374.288 652.813 383.02 655.812 390.388C650.073 385.805 645.041 382.173 637.244 382.917C632.821 383.338 629.253 385.844 626.57 389.291C624.826 391.532 623.346 394.12 622.549 396.851C620.499 402.475 620.214 407.871 622.753 413.409C624.756 417.778 627.773 421.251 631.366 424.386Z"/>
	<path fill="#222526" transform="matrix(0.500488 0 0 0.5 -6.10352e-05 -3.05176e-05)" d="M622.549 396.851C623.346 394.12 624.826 391.532 626.57 389.291C629.253 385.844 632.821 383.338 637.244 382.917C645.041 382.173 650.073 385.805 655.812 390.388C656.242 391.298 657.122 392.546 656.975 393.524C656.113 399.219 657.407 409.591 658.534 415.348C656.01 420.225 652.854 424.101 647.645 426.274C647.437 426.361 647.216 426.41 647.002 426.477C641.699 426.194 636.585 425.303 631.366 424.386C627.773 421.251 624.756 417.778 622.753 413.409C620.214 407.871 620.499 402.475 622.549 396.851Z"/>
	<path fill="#F6F6F5" transform="matrix(0.500488 0 0 0.5 -6.10352e-05 -3.05176e-05)" d="M642.415 399.267C644.827 399.748 646.305 400.023 647.914 401.973C648.747 404.841 647.931 406.673 646.933 409.324C645.289 409.035 644.117 408.067 642.779 407.137C641.272 404.653 642.001 401.974 642.415 399.267Z"/>
	<path fill="#363738" transform="matrix(0.500488 0 0 0.5 -6.10352e-05 -3.05176e-05)" d="M655.812 390.388C656.242 391.298 657.122 392.546 656.975 393.524C656.113 399.219 657.407 409.591 658.534 415.348C656.01 420.225 652.854 424.101 647.645 426.274C647.437 426.361 647.216 426.41 647.002 426.477C641.699 426.194 636.585 425.303 631.366 424.386C627.773 421.251 624.756 417.778 622.753 413.409C620.214 407.871 620.499 402.475 622.549 396.851L625.065 396.112C626.242 393.946 627.095 392.572 629.223 391.268L630.808 391.7C631.653 394.213 627.489 405.492 628.204 412.389L628.27 412.989C629.74 414.914 631.279 417.069 633.113 418.657C636.024 421.18 641.84 422.997 645.664 422.482C648.369 422.118 650.412 420.899 651.971 418.655C656.426 412.243 653.842 403.799 652.455 396.853L654.2 396.209L652.87 395.786C654.05 394.158 654.893 392.178 655.812 390.388Z"/>
</svg>
